<svg xmlns="http://www.w3.org/2000/svg" xmlns:xlink="http://www.w3.org/1999/xlink" viewBox="0,0,256,256" width="50px" height="50px" fill-rule="nonzero"><g fill="#ffffff" fill-rule="nonzero" stroke="none" stroke-width="1" stroke-linecap="butt" stroke-linejoin="miter" stroke-miterlimit="10" stroke-dasharray="" stroke-dashoffset="0" font-family="none" font-weight="none" font-size="none" text-anchor="none" style="mix-blend-mode: normal"><g transform="scale(5.12,5.12)"><path d="M9.98438,11c-0.26172,0.00391 -0.50781,0.10938 -0.69141,0.29297l-6,6c-0.39062,0.39063 -0.39062,1.02344 0,1.41406l21,21c0.39063,0.39063 1.02344,0.39063 1.41406,0l21,-21c0.39063,-0.39062 0.39063,-1.02344 0,-1.41406l-6,-6c-0.39062,-0.39062 -1.02344,-0.39062 -1.41406,0l-14.29297,14.29297l-14.29297,-14.29297c-0.19141,-0.19141 -0.45312,-0.29687 -0.72266,-0.29297zM10,13.41406l14.29297,14.29297c0.39063,0.39063 1.02344,0.39063 1.41406,0l14.29297,-14.29297l4.58594,4.58594l-19.58594,19.58594l-19.58594,-19.58594z"></path></g></g></svg>