<svg xmlns="http://www.w3.org/2000/svg" xmlns:xlink="http://www.w3.org/1999/xlink" viewBox="0,0,256,256" width="50px" height="50px" fill-rule="nonzero"><g fill="#569db1" fill-rule="nonzero" stroke="none" stroke-width="1" stroke-linecap="butt" stroke-linejoin="miter" stroke-miterlimit="10" stroke-dasharray="" stroke-dashoffset="0" font-family="none" font-weight="none" font-size="none" text-anchor="none" style="mix-blend-mode: normal"><g transform="scale(5.12,5.12)"><path d="M24.625,2.03125c-5.15234,0.08203 -10.33594,1.86328 -14.5625,5.46875c-5.12109,4.36719 -8.05859,10.76953 -8.0625,17.5c0,0.67188 -0.00781,1.35547 0.09375,2.09375l0.09375,0.90625h6.03125l-0.09375,-1.125c-1.01172,-9.33594 5.72656,-17.71094 15.0625,-18.71875c5.73828,-0.62109 11.39453,1.73438 15.03125,6.21875l-4.625,4.625h13.40625v-13.40625l-4.5,4.5c-4.63672,-5.4375 -11.25,-8.16797 -17.875,-8.0625zM41.78125,22l0.09375,1.125c1.01172,9.33594 -5.72656,17.71094 -15.0625,18.71875c-5.73828,0.62109 -11.39453,-1.73437 -15.03125,-6.21875l4.625,-4.625h-13.40625v13.40625l4.5,-4.5c8.24219,9.66406 22.77344,10.83594 32.4375,2.59375c5.12109,-4.36719 8.05859,-10.76953 8.0625,-17.5c0,-0.67187 0.00781,-1.35547 -0.09375,-2.09375l-0.09375,-0.90625z"></path></g></g></svg>